<svg width="50" height="50" viewBox="0 0 50 50" fill="none" xmlns="http://www.w3.org/2000/svg">
<g clip-path="url(#clip0_32_23)">
<path d="M15.7813 3.08595C14.2871 3.44728 13.0078 4.58009 12.4707 6.03517C12.2852 6.52345 12.2559 6.85548 12.2266 8.66212L12.1875 10.7422H7.959C3.3301 10.7422 3.14455 10.7617 2.12893 11.3574C1.24025 11.875 0.419942 12.9785 0.15627 14.0137C-0.068339 14.8438 -0.068339 22.2656 0.146505 23.291C0.332052 24.1602 0.830099 25.1758 1.4551 25.957L1.95315 26.5625V34.8438C1.95315 43.7988 1.94338 43.6524 2.48049 44.707C2.81252 45.3516 3.45705 46.0254 4.13088 46.4258C5.29299 47.1094 3.97463 47.0703 25 47.0703C46.0254 47.0703 44.7071 47.1094 45.8692 46.4258C46.543 46.0254 47.1875 45.3516 47.5196 44.707C48.0567 43.6524 48.0469 43.7988 48.0469 34.8438V26.5625L48.5449 25.957C49.1699 25.1758 49.668 24.1602 49.8535 23.291C50.0684 22.2656 50.0684 14.8438 49.8438 14.0137C49.5801 12.9785 48.7598 11.875 47.8711 11.3574C46.8555 10.7617 46.6699 10.7422 42.041 10.7422H37.8125L37.7735 8.66212C37.7442 6.85548 37.7149 6.52345 37.5293 6.03517C36.9824 4.55079 35.7227 3.44728 34.1699 3.07618C33.2715 2.87111 16.6699 2.87111 15.7813 3.08595ZM33.8477 6.04493C34.0723 6.14259 34.375 6.3965 34.5313 6.60157L34.8145 6.9629L34.8438 8.85744L34.8731 10.7422H25H15.127L15.1563 8.85744L15.1856 6.9629L15.4688 6.60157C15.625 6.3965 15.9278 6.14259 16.1524 6.04493C16.5332 5.86915 16.9629 5.85939 25 5.85939C33.0371 5.85939 33.4668 5.86915 33.8477 6.04493ZM46.2305 13.8086C46.4063 13.877 46.6602 14.0918 46.7871 14.2676L47.0215 14.5996V18.7012V22.8027L46.7285 23.3789C45.8594 25.1074 43.3496 26.6309 39.5606 27.7442C37.3438 28.3887 34.3848 28.9356 31.7383 29.1992C31.1231 29.2578 30.4981 29.3262 30.3516 29.3457L30.0977 29.3848L30.0586 28.4375C30.0293 27.627 30 27.4414 29.7949 27.1582C29.375 26.5723 29.3164 26.5625 24.9805 26.5625C21.4258 26.5625 21.0156 26.582 20.7129 26.7383C20.1074 27.041 19.9707 27.334 19.9414 28.4277C19.9121 29.2774 19.8828 29.3945 19.7461 29.3555C19.6485 29.336 19.2285 29.2871 18.7988 29.2481C15.3223 28.9649 11.3672 28.1445 8.62307 27.1485C6.68947 26.4453 4.56057 25.1465 3.82815 24.2285C3.65236 24.0137 3.38869 23.6035 3.24221 23.3203L2.97854 22.8027V18.7012V14.5996L3.21291 14.2676C3.66213 13.6328 2.0508 13.6817 24.9805 13.6719C42.6074 13.6719 45.9571 13.6914 46.2305 13.8086ZM5.5469 28.9942C8.63283 30.5469 13.584 31.7481 18.7012 32.1777C20.0293 32.2852 19.9805 32.2656 20.1758 32.8711C20.9278 35.2637 23.5254 36.6504 26.1914 36.0938C27.9004 35.7227 29.3262 34.4629 29.8242 32.8809C30.0196 32.2559 29.7363 32.3438 32.3242 32.0801C35.4785 31.7481 38.9649 31.0352 41.4746 30.2149C42.5196 29.8731 44.6875 28.9649 44.8731 28.7988C44.9219 28.75 45 28.711 45.0391 28.711C45.0879 28.711 45.1074 31.9629 45.0977 35.9277C45.0684 43.0469 45.0684 43.1543 44.8633 43.418C44.7559 43.5645 44.541 43.7793 44.3946 43.8867L44.1309 44.0918H25H5.86916L5.60549 43.8867C5.459 43.7793 5.24416 43.5645 5.13674 43.418C4.93166 43.1543 4.93166 43.0469 4.90236 35.9277C4.8926 31.9629 4.90236 28.711 4.93166 28.711C4.96096 28.711 5.2344 28.8379 5.5469 28.9942ZM27.1289 30.752C27.0996 31.9727 27.0899 32.0313 26.8067 32.4317C26.377 33.0274 25.8985 33.252 25 33.252C24.1016 33.252 23.6231 33.0274 23.1934 32.4317C22.9102 32.0313 22.9004 31.9727 22.8711 30.752L22.8321 29.4922H25H27.168L27.1289 30.752Z" fill="#1685E0"/>
</g>
<defs>
<clipPath id="clip0_32_23">
<rect width="50" height="50" fill="white"/>
</clipPath>
</defs>
</svg>
