<svg width="30" height="45" viewBox="0 0 30 45" fill="none" xmlns="http://www.w3.org/2000/svg">
<path d="M13.9873 0.16806C12.835 0.464878 11.7175 1.18947 11.1152 2.01882L10.766 2.49897L10.1025 2.55135C8.1906 2.69976 6.54936 3.93069 5.90334 5.68542C5.80731 5.96478 5.67636 6.19176 5.62398 6.19176C5.41446 6.19176 4.2883 6.79413 3.86053 7.1346C2.87404 7.9203 2.14072 9.43058 2.13199 10.7401L2.12326 11.4298H1.04074C0.220117 11.4298 -0.0243224 11.4559 0.00186762 11.5345C0.0280576 11.5956 1.10185 19.086 2.39389 28.1652L4.74226 44.691H15H25.2577L27.6061 28.1652C28.8982 19.086 29.9719 11.5956 29.9981 11.5345C30.0243 11.4559 29.7799 11.4298 28.9593 11.4298H27.8767L27.868 10.7401C27.8506 8.98536 26.8117 7.35285 25.2054 6.54969C24.8125 6.3489 24.4459 6.19176 24.3847 6.19176C24.3236 6.19176 24.1927 5.96478 24.0967 5.68542C23.4506 3.93069 21.8094 2.69976 19.8975 2.55135L19.234 2.49897L18.815 1.90533C17.715 0.316471 15.8992 -0.33828 13.9873 0.16806ZM15.7246 2.70849C16.1436 2.82198 16.615 3.24102 16.8508 3.68625C16.9468 3.87831 17.1214 4.41084 17.2349 4.8648C17.3484 5.32749 17.4619 5.71161 17.4793 5.72907C17.4968 5.75526 17.9245 5.62431 18.4222 5.45844C19.4785 5.09178 19.7055 5.08305 20.3602 5.31876C21.338 5.68542 21.8094 6.53223 21.8094 7.90284V8.61869L22.7522 8.65361C23.7736 8.68854 24.0705 8.7933 24.5855 9.28218C25.1006 9.76233 25.3712 10.5044 25.249 11.1242L25.1966 11.4298H15H4.80336L4.75099 11.1242C4.59384 10.2861 5.10891 9.32582 5.96445 8.87186C6.23508 8.72346 6.51444 8.67981 7.25649 8.65361L8.1906 8.61869V7.90284C8.1906 6.53223 8.66202 5.68542 9.63978 5.31876C10.2858 5.08305 10.5128 5.09178 11.5778 5.44971C12.0842 5.62431 12.512 5.7378 12.5294 5.72034C12.5556 5.70288 12.6516 5.37987 12.7389 5.00448C12.9572 4.17513 13.2453 3.58149 13.6381 3.18864C14.1445 2.69103 14.9738 2.49897 15.7246 2.70849ZM13.6905 18.0209V21.993L13.4548 22.0454C12.4421 22.2724 12.058 22.4034 11.2898 22.7787C9.36915 23.7129 8.17314 25.1708 7.91997 26.8993C7.64934 28.7151 8.50488 30.5484 10.1549 31.727C10.8969 32.2595 12.058 32.7921 12.9572 33.0103L13.6905 33.1936V37.7245V42.2466H10.3556H7.01205L5.05653 28.4271C3.98275 20.832 3.08356 14.4853 3.0661 14.3281L3.02245 14.0488H8.35647H13.6905V18.0209ZM26.9339 14.3281C26.9164 14.4853 26.0173 20.832 24.9435 28.4271L22.9879 42.2466H19.6531H16.3095V37.7245V33.1936L17.0777 33.0103C19.0158 32.5302 20.7793 31.2818 21.5475 29.8413C21.9665 29.0469 22.1062 28.5056 22.1062 27.5802C22.1062 25.4938 20.8666 23.774 18.5618 22.7002C17.9245 22.3946 17.4968 22.2549 16.5539 22.0454L16.3095 21.993V18.0209V14.0488H21.6435H26.9776L26.9339 14.3281ZM16.8769 24.8303C18.5356 25.3803 19.4872 26.3842 19.4872 27.5802C19.4872 28.2088 19.2253 28.7763 18.719 29.2739C18.2126 29.7627 17.7238 30.0421 16.8682 30.3477C16.2484 30.5572 16.0563 30.5834 15 30.5834C13.9088 30.5921 13.7691 30.5659 13.0794 30.3215C11.2548 29.6754 10.2596 28.4445 10.539 27.1787C10.8183 25.9565 12.154 24.9263 13.8913 24.612C14.6945 24.4724 16.1087 24.5684 16.8769 24.8303Z" fill="#630F8B"/>
</svg>
