<svg width="42" height="46" viewBox="0 0 42 46" fill="none" xmlns="http://www.w3.org/2000/svg">
<g clip-path="url(#clip0_33_20)">
<path d="M21.0001 45.8174L14.0922 38.9722H4.88163C2.33821 38.9722 0.276367 36.929 0.276367 34.4087V4.74599C0.276367 2.22564 2.33821 0.182495 4.88163 0.182495H37.1185C39.6619 0.182495 41.7237 2.22564 41.7237 4.74599V34.4087C41.7237 36.929 39.6619 38.9722 37.1185 38.9722H27.9079L21.0001 45.8174ZM4.88163 4.74599V34.4087H16.3948L21.0001 38.9722L25.6053 34.4087H37.1185V4.74599H4.88163ZM30.2106 29.8133H11.7895V28.9325C12.062 24.1525 16.1743 20.485 21.0001 20.7182C25.8258 20.485 29.9381 24.1525 30.2106 28.9325V29.811V29.8133ZM21.0001 18.4365C19.766 18.479 18.5696 18.0118 17.6964 17.1466C16.8233 16.2814 16.3519 15.0958 16.3948 13.873C16.3526 12.6503 16.8242 11.4651 17.6972 10.6001C18.5702 9.73503 19.7662 9.26767 21.0001 9.30948C22.2339 9.26767 23.4299 9.73503 24.3029 10.6001C25.1759 11.4651 25.6475 12.6503 25.6053 13.873C25.6482 15.0958 25.1768 16.2814 24.3037 17.1466C23.4305 18.0118 22.2341 18.479 21.0001 18.4365Z" fill="#BECA0F"/>
</g>
<defs>
<clipPath id="clip0_33_20">
<rect width="42" height="46" fill="white"/>
</clipPath>
</defs>
</svg>
