<svg width="39" height="45" viewBox="0 0 39 45" fill="none" xmlns="http://www.w3.org/2000/svg">
<path d="M5.01419 0.136295C2.72972 0.637222 0.839126 2.49152 0.200175 4.8819C0.1214 5.17191 0.0338727 5.83981 0.00761442 6.37589C-0.158688 10.023 2.40587 13.8107 7.03608 16.7195L7.76256 17.1765L7.81507 17.7126C7.95512 18.9869 8.40151 20.5248 8.95293 21.6321C9.73193 23.1876 11.2812 25.0243 12.5853 25.9471C13.8545 26.8435 15.4912 27.5993 16.8567 27.9069L17.4869 28.0563V30.2797V32.5119L14.012 32.5382C10.9135 32.5646 10.5022 32.5822 10.2571 32.714C9.87197 32.9249 9.48685 33.3292 9.29429 33.7246C9.13674 34.041 9.12799 34.3222 9.12799 38.7602C9.12799 44.0155 9.10173 43.7871 9.76694 44.4374C10.3709 45.0262 9.94199 44.9998 19.5 44.9998C29.058 44.9998 28.6291 45.0262 29.2331 44.4374C29.8983 43.7871 29.872 44.0155 29.872 38.7602C29.872 34.3222 29.8633 34.041 29.7057 33.7246C29.5132 33.3292 29.128 32.9249 28.7429 32.714C28.4978 32.5822 28.0865 32.5646 24.9967 32.5382L21.5131 32.5119V30.2885V28.0563L21.977 27.9508C25.5394 27.1423 28.4453 24.8574 30.0733 21.5794C30.6598 20.393 31.2287 18.3454 31.2287 17.4138C31.2287 17.2205 31.3425 17.115 31.9552 16.7283C36.5941 13.8107 39.1587 10.023 38.9924 6.37589C38.9399 5.28616 38.7911 4.63583 38.3797 3.74823C37.5307 1.89393 35.8677 0.54055 33.9508 0.127506C33.1193 -0.0482559 5.81944 -0.0394669 5.01419 0.136295ZM7.68378 8.13351C7.68378 10.3306 7.65752 12.1321 7.61376 12.1321C7.45621 12.1321 5.76693 10.4448 5.31178 9.82963C4.43651 8.64323 4.0864 7.72047 4.0864 6.56923C4.0864 6.05951 4.13016 5.86617 4.34898 5.41798C4.85664 4.38976 5.30303 4.1437 6.70347 4.13491H7.68378V8.13351ZM27.1849 10.9194L27.1587 17.7126L26.9136 18.486C26.4584 19.9536 25.8195 20.9906 24.7254 22.0364C23.9114 22.8097 23.0011 23.3546 21.8808 23.7413C21.058 24.0313 20.9967 24.0313 19.5875 24.0401C18.3446 24.0401 18.047 24.0137 17.4606 23.8379C14.7998 23.0646 12.8304 21.0521 12.0427 18.319C11.8501 17.6335 11.8501 17.5808 11.8151 10.8754L11.7888 4.13491H19.5H27.2112L27.1849 10.9194ZM33.6357 4.31946C34.4059 4.67977 34.9224 5.58495 34.9136 6.57801C34.9136 7.72047 34.5635 8.64323 33.6882 9.82963C33.2331 10.4448 31.5438 12.1321 31.3862 12.1321C31.3425 12.1321 31.3162 10.3306 31.3162 8.13351V4.13491H32.279C33.0755 4.13491 33.3119 4.17006 33.6357 4.31946ZM25.802 38.7602V40.8694H19.5H13.198V38.7602V36.6511H19.5H25.802V38.7602Z" fill="#8C0D0D"/>
</svg>
