<svg width="50" height="38" viewBox="0 0 50 38" fill="none" xmlns="http://www.w3.org/2000/svg">
<g clip-path="url(#clip0_31_17)">
<path d="M43.5 38.3334H5.5C2.87665 38.3334 0.75 36.1694 0.75 33.5V4.50002C0.75 1.83064 2.87665 -0.333313 5.5 -0.333313H43.5C46.1234 -0.333313 48.25 1.83064 48.25 4.50002V33.5C48.25 36.1694 46.1234 38.3334 43.5 38.3334ZM5.5 4.50002V33.5H43.5V4.50002H5.5ZM38.75 28.6667H24.5V23.8334H38.75V28.6667ZM13.6082 28.6667L10.25 25.2495L15.6959 19.7081L10.25 14.1667L13.6082 10.7495L22.4124 19.7081L13.6106 28.6667H13.6082Z" fill="#2BAC1A"/>
</g>
<defs>
<clipPath id="clip0_31_17">
<rect width="50" height="38" fill="white"/>
</clipPath>
</defs>
</svg>
